# xmcd CD database file
# Generated: Fre Jun 6 10:04:03 2003 by KSCD
# 
# Track frame offsets:
#       150
#       19032
#       32147
#       41095
#       53946
#       76765
#       89320
#       97428
#       109330
#       127923
#       136576
#       153059
#       166019
#       175679
#       190974
#       204495
#       218688
#       230203
#
# Disc length: 3245 seconds
#
# Revision: 2
# Processed by: cddbd v1.4PL0 Copyright (c) Steve Scherf et al.
# Submitted via: Kscd 1.3.3
#
DISCID=e90cab12
DTITLE=John Denver - Pure Contry
DYEAR=1900
DGENRE=
TTITLE0=Rocky Mountain High
TTITLE1=
TTITLE2=
TTITLE3=
TTITLE4=
TTITLE5=
TTITLE6=
TTITLE7=
TTITLE8=
TTITLE9=
TTITLE10=
TTITLE11=
TTITLE12=
TTITLE13=
TTITLE14=
TTITLE15=
TTITLE16=
TTITLE17=
EXTD=
EXTT0=
EXTT1=
EXTT2=
EXTT3=
EXTT4=
EXTT5=
EXTT6=
EXTT7=
EXTT8=
EXTT9=
EXTT10=
EXTT11=
EXTT12=
EXTT13=
EXTT14=
EXTT15=
EXTT16=
EXTT17=
PLAYORDER=
